<svg xmlns="http://www.w3.org/2000/svg" viewBox="0 0 400 100"><defs><style>.cls-1{fill:#170533;}.cls-2{fill:#480ca8;}.cls-3{fill:none;}</style></defs><title>Recurso 38</title><g id="Capa_2" data-name="Capa 2"><g id="Capa_1-2" data-name="Capa 1"><path class="cls-1" d="M154.12,60.5V52.77H139.5a5.9,5.9,0,0,1-2.41-.49,6.3,6.3,0,0,1-2-1.31,6.07,6.07,0,0,1-1.31-2,5.9,5.9,0,0,1-.49-2.41V39.5a5.9,5.9,0,0,1,.49-2.41,6,6,0,0,1,3.27-3.27,6.07,6.07,0,0,1,2.41-.49H159V39.5H139.5v7.1h14.62a6,6,0,0,1,2.39.49,6.54,6.54,0,0,1,2,1.31,6.35,6.35,0,0,1,1.33,2,6.06,6.06,0,0,1,.48,2.41V60.5a6.06,6.06,0,0,1-.48,2.41,6.35,6.35,0,0,1-1.33,2,6.54,6.54,0,0,1-2,1.31,5.81,5.81,0,0,1-2.39.49H133.33V60.5Z"/><path class="cls-1" d="M166.67,33.33h6.13V60.5H190V33.33h6.17V66.67H190V61a5.75,5.75,0,0,1-.62,2.19A6.57,6.57,0,0,1,188,65a6.41,6.41,0,0,1-1.9,1.21,5.9,5.9,0,0,1-2.25.44h-11a5.86,5.86,0,0,1-2.38-.49,6.14,6.14,0,0,1-1.95-1.31,6.32,6.32,0,0,1-1.32-2,6.06,6.06,0,0,1-.48-2.41Z"/><path class="cls-1" d="M233.33,60.5a6.06,6.06,0,0,1-.48,2.41,6.32,6.32,0,0,1-1.32,2,6.14,6.14,0,0,1-1.95,1.31,5.94,5.94,0,0,1-2.41.49H210V80h-6.13V33.33H210V39a5.88,5.88,0,0,1,.63-2.21A6.4,6.4,0,0,1,212,35a6,6,0,0,1,1.89-1.21,6.11,6.11,0,0,1,2.3-.44h11a6.19,6.19,0,0,1,4.36,1.8,6.32,6.32,0,0,1,1.32,2,6.06,6.06,0,0,1,.48,2.41Zm-6.16,0v-21H210v21Z"/><path class="cls-1" d="M246.77,39.5V66.67h-6.14V33.33h6.14v5.89A6.23,6.23,0,0,1,248.66,35a6,6,0,0,1,1.93-1.25,5.92,5.92,0,0,1,2.34-.46h6.54a6,6,0,0,1,2.4.49,6.37,6.37,0,0,1,1.95,1.31,6.21,6.21,0,0,1,1.34,2,6.06,6.06,0,0,1,.48,2.41v5.63h-6.17V39.5Z"/><path class="cls-1" d="M300,60.5a5.9,5.9,0,0,1-.49,2.41,6.3,6.3,0,0,1-1.31,2,6.21,6.21,0,0,1-1.94,1.31,5.81,5.81,0,0,1-2.39.49H277.31a5.83,5.83,0,0,1-2.38-.49,6,6,0,0,1-3.27-3.27,5.9,5.9,0,0,1-.49-2.41v-21a5.9,5.9,0,0,1,.49-2.41,6,6,0,0,1,3.27-3.27,6,6,0,0,1,2.38-.49h16.56a6,6,0,0,1,2.39.49,6.21,6.21,0,0,1,1.94,1.31,6.3,6.3,0,0,1,1.31,2A5.9,5.9,0,0,1,300,39.5Zm-22.69-21v21h16.56v-21Z"/><path class="cls-1" d="M306.19,33.54h8.08V23.33h6.13V33.54h10.89v6.12H320.4V60.54h10.89v6.13H320.4a5.74,5.74,0,0,1-2.36-.49,6.27,6.27,0,0,1-2-1.3,6,6,0,0,1-1.32-1.95,5.81,5.81,0,0,1-.49-2.39V39.66h-8.08Z"/><path class="cls-1" d="M366.67,53.15H344.6V60.5h22.07v6.17H344.6a5.86,5.86,0,0,1-2.38-.49A6.13,6.13,0,0,1,339,62.91a6.06,6.06,0,0,1-.48-2.41v-21a6.06,6.06,0,0,1,.48-2.41,6.13,6.13,0,0,1,3.27-3.27,6,6,0,0,1,2.38-.49h15.9a6.07,6.07,0,0,1,2.41.49,6,6,0,0,1,3.27,3.27,6.07,6.07,0,0,1,.49,2.41ZM344.6,39.5V47h15.9V39.5Z"/><rect class="cls-2" x="50" y="45" width="50" height="10" rx="2.5"/><path class="cls-2" d="M97.5,33.33h-45a2.5,2.5,0,0,0-2.5,2.5v6.4a5.83,5.83,0,0,1,2.5-.56h45a5.83,5.83,0,0,1,2.5.56v-6.4A2.5,2.5,0,0,0,97.5,33.33Z"/><path class="cls-2" d="M52.5,25A2.5,2.5,0,0,0,50,27.5v3.06A5.83,5.83,0,0,1,52.5,30h45a5.83,5.83,0,0,1,2.5.56V27.5A2.5,2.5,0,0,0,97.5,25Z"/><path class="cls-2" d="M52.5,66.67h45a2.5,2.5,0,0,0,2.5-2.5v-6.4a5.83,5.83,0,0,1-2.5.56h-45a5.83,5.83,0,0,1-2.5-.56v6.4A2.5,2.5,0,0,0,52.5,66.67Z"/><path class="cls-2" d="M97.5,75a2.5,2.5,0,0,0,2.5-2.5V69.44a5.83,5.83,0,0,1-2.5.56h-45a5.83,5.83,0,0,1-2.5-.56V72.5A2.5,2.5,0,0,0,52.5,75Z"/><path class="cls-1" d="M33.33,47.5v5a2.5,2.5,0,0,0,2.5,2.5H46.67V45H35.83A2.5,2.5,0,0,0,33.33,47.5Z"/><path class="cls-1" d="M116.67,52.5v-5a2.5,2.5,0,0,0-2.5-2.5H103.33V55h10.84A2.5,2.5,0,0,0,116.67,52.5Z"/><path class="cls-1" d="M114.17,33.33H103.33v8.34h10.84a5.83,5.83,0,0,1,2.5.56v-6.4A2.5,2.5,0,0,0,114.17,33.33Z"/><path class="cls-1" d="M35.83,66.67H46.67V58.33H35.83a5.83,5.83,0,0,1-2.5-.56v6.4A2.5,2.5,0,0,0,35.83,66.67Z"/><path class="cls-1" d="M35.83,33.33H46.67v8.34H35.83a5.83,5.83,0,0,0-2.5.56v-6.4A2.5,2.5,0,0,1,35.83,33.33Z"/><path class="cls-1" d="M114.17,66.67H103.33V58.33h10.84a5.83,5.83,0,0,0,2.5-.56v6.4A2.5,2.5,0,0,1,114.17,66.67Z"/><rect class="cls-3" width="400" height="100"/></g></g></svg>